<!--?xml version="1.0" standalone="no"?-->
              <svg id="sw-js-blob-svg" viewBox="0 0 100 100" xmlns="http://www.w3.org/2000/svg" version="1.1">
                    <defs> 
                        <linearGradient id="sw-gradient" x1="0" x2="1" y1="1" y2="0">
                            <stop id="stop1" stop-color="rgba(54.981, 27.508, 222.647, 1)" offset="0%"></stop>
                            <stop id="stop2" stop-color="rgba(196.087, 31, 251, 1)" offset="100%"></stop>
                        </linearGradient>
                    </defs>
                <path fill="url(#sw-gradient)" d="M22.7,-37C29.3,-35.5,34.4,-29.2,35.4,-22.2C36.5,-15.2,33.4,-7.6,31.3,-1.2C29.3,5.2,28.2,10.5,26.8,16.7C25.3,23,23.5,30.2,19,35.2C14.4,40.1,7.2,42.7,0.3,42.2C-6.6,41.7,-13.3,38.1,-17.7,33.1C-22.2,28.2,-24.6,21.8,-28.8,16.1C-32.9,10.3,-39,5.2,-41.2,-1.3C-43.4,-7.7,-41.8,-15.5,-37.6,-21.2C-33.4,-26.8,-26.5,-30.5,-19.8,-31.9C-13.1,-33.2,-6.6,-32.3,0.7,-33.6C8.1,-34.9,16.1,-38.4,22.7,-37Z" width="100%" height="100%" transform="translate(50 50)" stroke-width="0" style="transition: all 0.3s ease 0s;" stroke="url(#sw-gradient)"></path>
              </svg>